M48
;DRILL file {Pcbnew (2012-apr-16-27)-stable} date Sa 19 Apr 2014 15:39:25 CEST
;FORMAT={-:-/ absolute / metric / decimal}
FMAT,2
METRIC,TZ
T1C0.635
T2C0.813
T3C3.048
%
G90
G05
M71
T1
X123.190Y81.915
X123.190Y84.455
T2
X104.775Y64.135
X104.775Y66.675
X104.775Y75.565
X104.775Y78.105
X107.950Y62.865
X107.950Y65.405
X107.950Y67.945
X107.950Y70.485
X107.950Y73.025
X107.950Y75.565
X107.950Y78.105
X107.950Y82.550
X107.950Y85.090
X107.950Y87.630
X107.950Y90.170
X107.950Y97.155
X110.490Y94.615
X110.490Y97.155
X115.570Y62.865
X115.570Y65.405
X115.570Y67.945
X115.570Y70.485
X115.570Y73.025
X115.570Y75.565
X115.570Y78.105
X115.570Y82.550
X115.570Y85.090
X115.570Y87.630
X115.570Y90.170
X116.840Y98.425
X116.840Y100.965
X118.110Y59.690
X118.110Y104.140
X119.380Y98.425
X120.650Y59.690
X120.650Y104.140
X123.190Y61.595
X123.190Y64.135
X123.190Y66.675
X123.190Y69.215
X123.190Y71.755
X123.190Y74.295
X123.190Y76.835
X123.190Y79.375
X123.190Y86.360
X123.190Y88.900
X123.190Y91.440
X123.190Y93.980
X123.190Y96.520
X123.190Y99.060
X123.190Y101.600
X123.190Y104.140
X130.810Y61.595
X130.810Y64.135
X130.810Y66.675
X130.810Y69.215
X130.810Y71.755
X130.810Y74.295
X130.810Y76.835
X130.810Y79.375
X130.810Y86.360
X130.810Y88.900
X130.810Y91.440
X130.810Y93.980
X130.810Y96.520
X130.810Y99.060
X130.810Y101.600
X130.810Y104.140
X134.620Y64.135
X134.620Y66.675
X134.620Y69.215
X134.620Y71.755
X134.620Y74.295
X134.620Y76.835
X134.620Y79.375
X134.620Y81.915
T3
X106.045Y56.515
X106.045Y109.220
X132.715Y56.515
X132.715Y109.220
T0
M30
